<?xml version="1.0" encoding="UTF-8" standalone="no"?>
<!DOCTYPE svg PUBLIC "-//W3C//DTD SVG 1.1//EN" "http://www.w3.org/Graphics/SVG/1.1/DTD/svg11.dtd">
<svg width="100%" height="100%" viewBox="0 0 4735 6000" version="1.1" xmlns="http://www.w3.org/2000/svg" xmlns:xlink="http://www.w3.org/1999/xlink" xml:space="preserve" xmlns:serif="http://www.serif.com/" style="fill-rule:evenodd;clip-rule:evenodd;stroke-linejoin:round;stroke-miterlimit:2;">
    <g transform="matrix(4.16667,0,0,4.16667,377.843,-484.505)">
        <path d="M321.522,788.683C314.621,790.507 309.821,796.817 309.958,803.917C310.611,816.639 315.747,836.858 337.703,857.359C337.703,857.359 337.694,857.622 337.684,858.016L337.703,858.034C337.703,858.034 337.558,862.479 337.576,869.649C337.577,870.183 337.578,870.701 337.582,871.263C337.583,871.358 337.584,871.457 337.584,871.552C337.628,877.434 337.793,884.788 338.202,892.872C380.629,912.838 430.988,924.457 485.06,924.457C550.04,924.457 609.69,907.716 656.599,879.805C656.545,868.615 656.109,861.152 656.109,861.152L656.143,861.118C656.123,860.734 656.109,860.477 656.109,860.477C678.049,839.99 680.394,816.718 681.013,803.95C681.165,796.836 676.359,790.509 669.447,788.683C643.076,781.72 615.905,771.617 593.972,762.606C595.364,765.9 596.286,773.015 580.484,776.176C574.183,777.436 407.916,783.037 402.848,779.659C390.569,771.472 392.519,764.289 393.464,762.186C373.459,771.392 347.985,781.696 321.522,788.683Z" style="fill:rgb(15,17,36);fill-rule:nonzero;"/>
    </g>
    <g id="haj" transform="matrix(0.999576,-0.0291303,0.0291303,0.999576,-40.4783,69.5563)">
        <g transform="matrix(4.16185,0.200431,-0.200431,4.16185,471.953,-577.982)">
            <path d="M761.691,432.583C761.664,425.37 759.98,411.923 756.323,394.659C760.24,399.95 763.916,405.349 764.562,412.798C765.315,421.474 764.36,429.337 765.788,435.955C764.272,434.891 762.923,433.76 761.691,432.583ZM762.217,621.009C761.387,624.347 759.453,626.979 757.084,629.337C758.901,623.79 760.495,618.226 761.897,612.662C762.67,615.244 762.973,617.972 762.217,621.009ZM747.775,360.846C742.836,343.919 736.47,325.392 728.462,306.471C737.306,312.989 736.163,321.288 739.726,333.953C743.073,345.848 751.739,354.332 758.733,364.126C762.123,368.873 763.885,374.535 765.298,380.201C763.214,378.012 761.131,375.869 759.186,373.767C755.307,369.576 751.554,365.202 747.775,360.846ZM745.225,666.44C743.247,675.739 734.465,680.6 728.366,687.115C734.726,678.079 740.171,668.766 744.857,659.29C745.509,661.563 745.763,663.915 745.225,666.44ZM769.053,470.741C771.041,477.33 769.3,483.977 768.425,490.576C767.424,480.374 766.245,471.073 765.147,462.922C766.588,464.57 767.884,466.864 769.053,470.741ZM770.38,552.829C770.89,554.565 771.216,556.321 771.106,558.026C770.997,559.716 770.493,561.101 769.819,562.38C770.054,559.172 770.237,555.989 770.38,552.829ZM714.288,276.161C717.725,278.79 721.646,281.187 725.569,283.595C722.854,282.894 720.114,282.48 717.39,282.406C716.361,280.324 715.36,278.239 714.288,276.161ZM713.319,708.313C712.936,708.822 712.529,709.302 712.139,709.802C712.308,708.858 712.422,707.84 712.54,706.827C713.923,705.299 715.299,703.767 716.621,702.218C716.555,703.415 715.671,705.182 713.319,708.313ZM700.011,245.72C698.704,244.049 697.256,242.461 695.806,240.875C697.963,242.041 699.953,243.391 701.538,245.183C706.294,250.567 708.318,257.669 711.747,263.998C707.905,258.121 704.785,251.819 700.011,245.72ZM701.084,721.037C700.313,720.665 699.348,720.665 698.524,721.365C697.176,722.559 695.74,723.647 694.335,724.774L694.227,724.786C696.671,722.663 699.017,720.502 701.315,718.321C701.235,719.226 701.156,720.131 701.084,721.037ZM691.251,749.495C689.813,746.864 694.578,741.819 698.803,737.865C697.205,743.074 694.431,746.019 691.251,749.495ZM685.639,742.341C685.706,740.804 685.773,739.267 685.841,737.722C686.222,737.168 686.637,736.635 686.994,736.064C687.738,736.437 688.637,736.486 689.595,735.842C689.805,735.704 690.009,735.557 690.219,735.418C688.581,737.628 687.033,739.917 685.639,742.341ZM664.097,749.909C663.247,750.499 662.389,751.08 661.482,751.594C657.409,753.907 653.109,754.913 648.742,755.651C655.071,752.284 661.091,748.771 666.805,745.117C665.798,746.611 664.885,748.19 664.097,749.909ZM525.637,139.966C532.371,136.918 541.693,138.962 550.425,141.628C542.436,140.55 534.18,139.972 525.637,139.966ZM309.167,189.532C309.008,189.586 308.86,189.65 308.702,189.704C312.228,184.591 314.899,181.806 318.085,180.304C315.019,183.343 312.035,186.415 309.167,189.532ZM255.831,750.427C246.24,745.573 238.628,739.006 235.75,726.604C234.978,723.28 234.364,720.131 233.728,717.115C238.954,720.352 244.887,723.581 246.102,729.392C247.655,736.827 248.181,743.944 258.726,739.741C259.827,739.302 260.446,738.364 260.502,737.359C260.795,738.123 261.105,738.896 261.419,739.669C256.549,742.577 255.131,746.309 255.831,750.427ZM227.193,691.636C226.57,688.847 226.23,685.967 226.656,683.481C226.947,684.031 227.217,684.594 227.511,685.141C227.401,687.274 227.203,689.469 227.193,691.636ZM222.87,325.343C225.186,318.993 226.656,313.043 231.767,309.255C230.005,312.287 228.233,315.315 226.421,318.324C225.32,320.154 224.124,322.535 222.87,325.343ZM229.507,303.165C230.616,302.135 231.92,301.194 233.31,300.286C232.772,301.222 232.187,302.144 231.454,303.027C228.993,305.994 226.525,308.56 224.585,311.259C223.881,311.717 223.218,312.22 222.55,312.719C224.264,309.247 226.452,306.006 229.507,303.165ZM240.658,706.668C242.297,709.042 244.002,711.373 245.738,713.683C243.98,712.474 242.232,711.325 240.688,710.192C238.637,708.685 236.828,707.25 235.208,705.762C236.924,706.422 238.765,706.695 240.658,706.668ZM201.12,614.265C199.477,609.296 197.931,604.288 197.821,598.826C197.812,598.432 197.851,598.043 197.857,597.651C198.874,603.155 200.034,608.622 201.299,614.057L201.12,614.265ZM193.677,450.566C192.96,452.336 192.237,453.79 191.492,455.059C191.936,453.62 192.468,452.172 193.173,450.697C193.701,449.593 194.185,448.565 194.639,447.561C194.563,448.253 194.483,448.94 194.407,449.632C194.099,449.866 193.837,450.173 193.677,450.566ZM192.219,473.109C191.707,472.723 191.136,472.374 190.593,472.016C190.468,471.057 190.347,470.099 190.262,469.153C191.138,468.606 191.963,468.046 192.712,467.461C192.559,469.357 192.356,471.199 192.219,473.109ZM184.991,550.624C185.191,543.741 186.615,536.981 188.515,530.216C189.63,530.004 190.611,529.139 190.62,527.781C190.628,526.631 190.694,525.478 190.786,524.323C190.866,528.756 191.006,533.202 191.204,537.658C188.311,541.742 186.014,546.074 184.991,550.624ZM169.443,533.76C167.068,525.902 165.993,518.142 165.472,510.145C167.035,511.565 168.609,512.971 170.157,514.447C172.409,516.596 176.283,515.042 176.317,511.925C176.409,503.728 174.139,495.491 174.543,487.344C174.924,479.653 176.435,476.571 179.05,474.681C179.2,474.878 179.346,475.049 179.496,475.254C181.701,478.275 183.514,477.137 184.849,475.999C186.429,474.651 187.34,473.305 187.438,478.856C186.678,478.99 186.013,479.476 185.824,480.416C182.016,499.348 175.298,515.646 169.443,533.76ZM188.872,469.981C188.934,470.316 188.97,470.628 189.039,470.969C188.73,470.768 188.44,470.569 188.133,470.359C188.379,470.234 188.621,470.115 188.872,469.981ZM192.104,442.547C191.835,443.53 191.561,444.512 191.238,445.496C189.452,450.928 188.47,455.223 188.163,459.29C186.426,460.915 184.45,462.112 181.998,463.414L181.994,463.406C178.708,456.003 186.748,449.312 192.104,442.547ZM195.417,403.772C196.099,404.107 196.775,404.47 197.456,404.812C196.929,407.158 196.526,409.516 196.213,411.887C195.896,412.212 195.559,412.524 195.253,412.857C195.409,409.884 195.38,406.59 195.417,403.772ZM793.923,460.61C791.232,454.705 787.687,454.021 783.487,451.388C784.541,450.654 785.078,449.112 784.365,447.929C779.171,439.293 774.445,434.436 773.839,424.034C773.31,414.946 772.966,407.368 768.467,399.215C767.861,398.117 764.857,393.448 761.3,388.408C764.982,392.474 768.37,396.759 771.095,401.532C776.919,411.728 772.807,431.423 782.365,438.686C783.451,439.513 784.702,438.349 784.811,437.299C785.666,429.05 784.655,417.507 782.125,407.762C784.307,408.306 786.762,408.62 789.699,408.537C791.881,408.475 793.131,405.224 790.893,404.18C776.931,397.669 780.385,383.53 775.396,371.326C769.728,357.456 756.927,348.373 750.796,334.83C743.017,317.649 743.786,303.823 725.048,298.623C723.972,296.205 722.827,293.784 721.699,291.362C731.392,292.867 740.799,298.899 747.452,305.856C747.788,307.415 747.992,309.042 747.927,310.804C747.922,310.966 748.186,311.006 748.218,310.843C748.468,309.548 748.576,308.349 748.652,307.173C748.975,307.535 749.313,307.893 749.62,308.258C755.805,315.608 755.272,320.612 756.918,329.024C758.291,336.037 763.612,342.878 767.484,349.025C768.456,350.569 770.905,349.576 770.456,347.787C768.901,341.595 764.776,334.939 764.129,328.695C763.834,325.853 764.908,323.046 764.401,320.045C762.932,311.352 756.748,303.406 750.384,297.581C748.433,295.795 746.234,294.041 743.883,292.381C741.869,289.971 739.386,287.829 736.597,285.797C739.448,287.417 742.294,288.927 745.027,290.314C746.634,291.129 749.156,289.739 748.393,287.756C743.607,275.334 731.466,272.45 722.984,263.063C714.186,253.327 713.129,241.183 701.637,233.565C692.954,227.81 688.251,228.129 680.408,218.487C678.481,216.12 678.538,213.892 676.122,211.451C673.145,208.445 669.624,206.489 665.853,205.313C661.527,200.59 657.092,195.973 652.419,191.614C661.128,195.497 670.203,194.84 681.854,193.796C684.373,193.571 685.804,190.141 683.234,188.758C679.573,186.789 678.795,186.344 675.815,185.385C668.893,185.679 662.044,184.991 655.269,183.321C652.145,181.265 649.307,178.895 646.754,176.211C640.529,170.627 635.18,163.67 626.989,160.624C622.999,159.14 619.934,159.426 616.655,159.713C614.879,159.868 613.041,160.023 610.96,159.897C609.507,159.809 608.205,159.587 606.939,159.332C603.229,157.433 599.451,155.641 595.581,153.992C591.455,150.794 587.887,146.808 583.073,143.309C577.556,139.3 573.194,140.041 566.588,139.593C557.013,138.942 549.63,134.912 540.551,132.299C529.507,129.12 521.745,131.283 516.61,140.149C508.315,140.518 499.77,141.396 490.959,142.846C490.959,142.846 489.446,142.581 486.757,142.189C486.395,141.987 486.044,141.766 485.678,141.572C494.447,139.733 503.037,139.42 513.182,138.953C514.877,138.875 517.068,137.699 517.336,135.827C519.024,124.036 528.587,124.042 537.96,122.959C541.097,122.597 542.52,117.668 538.781,116.962C526.246,114.598 513.559,118.225 509.785,130.45C499.286,130.341 486.48,129.129 477.294,133.828C468.512,126.699 458.015,122.198 447.242,123.215C444.068,123.515 444.15,127.646 447.242,128.037C454.46,128.949 460.379,131.348 465.63,134.972C460.366,133.997 454.911,133.402 449.317,133.113C444.338,132.856 439.223,132.961 434.086,133.067C422.096,133.313 409.984,133.56 399.187,129.191C390.73,125.769 386.668,123.238 377.861,127.221C375.108,128.466 377.185,132.24 379.796,131.762C390.457,129.813 396.575,136.954 405.317,139.697C389.775,141.88 371.57,145.912 357.149,143.639C355.181,143.329 353.661,144.129 352.94,146.001C348.604,157.251 348.756,156.09 338.184,158.173C335.285,158.744 331.868,159.467 329.471,161.36C326.119,164.006 324.795,166.895 324.738,169.905C320.229,170.256 315.936,171.216 312.075,173.22C308.204,175.228 306.03,177.49 303.572,180.916C301.416,183.92 300.309,189.323 298.585,192.185C297.808,193.475 296.894,194.624 295.909,195.7C295.354,196.028 294.805,196.333 294.243,196.681C283.875,203.103 271.065,211.348 267.547,223.478C261.741,228.484 255.077,231.598 249.281,236.608C242.787,242.223 242.599,245.639 247.748,253.298C248.342,254.181 249.779,253.642 249.504,252.566C246.002,238.816 266.393,233.79 273.712,227.2C279.665,221.841 283.393,215.198 289.91,210.231C291.327,209.151 292.78,208.212 294.217,207.267C289.321,213.548 284.769,219.963 280.381,226.439C269.403,232.718 263.412,243.854 257.952,255.641C253.234,257.642 249.322,261.507 246.571,267.214C244.221,272.088 246.378,274.475 245.577,278.424C245.347,279.557 245.012,280.564 244.624,281.507C243.415,283.252 242.134,284.933 240.743,286.514C240.324,286.99 239.979,287.473 239.623,287.955C235.381,291.305 229.781,293.24 225.212,297.013C215.347,305.156 213.879,314.166 211.359,324.577C204.058,334.893 198.94,347.465 192.436,357.585C185.369,368.579 185.617,377.744 191.37,389.623C191.609,390.115 192.306,389.828 192.334,389.364C192.72,383.261 190.61,376.281 191.891,370.313C192.769,366.23 195.365,362.596 198.097,359.153C195.6,366.159 194.244,373.477 195.854,382.329C196.22,384.339 199.006,383.615 199.193,381.882C200.91,365.99 207.784,354.105 213.587,339.589C214.549,337.184 215.344,334.713 216.076,332.225C217.779,329.381 219.481,326.535 221.202,323.704C221.294,324.435 221.336,325.132 221.519,325.923C221.641,326.45 222.25,326.421 222.536,326.079C220.164,331.497 217.577,338.535 214.934,346.937C201.547,358.034 200.633,378.464 198.116,395.356C196.639,394.649 195.18,393.935 193.848,393.17C191.418,391.775 188.151,393.049 187.418,395.755C184.806,405.391 185.589,413.674 188.578,422.994C188.416,423.395 188.237,423.796 188.101,424.196C186.63,428.542 188.163,433.232 186.405,437.275C183.169,444.717 173.95,448.619 171.765,457.472C170.591,462.228 171.68,465.144 173.7,467.984C172.206,468.99 170.859,470.164 169.737,471.828C163.926,480.444 166.752,492.775 168.307,503.492C166.879,502.305 165.466,501.114 164.145,499.891C162.273,498.162 158.284,499.225 158.591,502.166C159.779,513.585 160.037,527.144 168.59,535.779L168.765,535.861C163.676,552.116 164.582,567.186 175.022,581.113C176.242,582.742 179.168,581.872 178.534,579.649C174.589,565.838 174.478,554.857 177.07,543.457C176.211,553.282 178.119,563.095 184.291,571.871C184.637,572.365 185.149,572.633 185.692,572.736C186.683,604.875 180.609,642.471 206.274,664.998C207.077,665.703 208.328,664.819 207.783,663.846C199.876,649.743 196.499,636.317 195.227,621.624C195.599,622.4 195.973,623.176 196.358,623.941C195.911,626.544 196.061,629.264 197.08,632.038C198.012,634.573 200.745,635.92 203.269,634.527L203.507,634.419C203.823,634.354 204.117,634.221 204.375,634.028C205.026,633.722 205.679,633.423 206.34,633.142C206.749,634.525 207.135,635.917 207.563,637.293C206.965,649.752 206.935,667.537 219.225,668.291C220.322,670.757 221.479,673.189 222.656,675.611C216.317,680.722 216.741,693.596 220.53,702.538C221.393,704.575 222.392,706.316 223.54,707.941C225.714,720.629 225.279,734.001 233.095,744.753C239.653,753.775 249.204,757.977 259.54,758.923C265.864,768.674 278.005,778.859 281.422,784.738C282.195,786.067 284.527,785.187 283.988,783.668C282.315,778.947 272.635,768.278 267.236,759.039C268.584,758.965 269.932,758.893 271.283,758.727C272.276,758.606 272.486,757.375 271.518,757.005C269.277,756.149 267.066,755.307 264.9,754.444C262.897,749.646 262.908,745.698 267.154,743.926C268.321,743.439 268.679,742.281 268.637,741.143C269.469,741.763 270.235,742.472 270.826,743.459C272.737,746.654 272.198,750.487 273.422,753.877C274.781,757.649 277.547,760.094 280.762,760.709C283.293,765.226 287.108,768.949 289.685,773.448C292.232,777.897 292.118,784.331 295.732,787.922C296.634,788.818 298.125,789.005 299.226,788.369C307.54,783.569 301.603,771.475 297.683,765.688C295.978,763.169 294.049,760.818 292.242,758.379C334.461,787.506 392.736,803.804 472.359,798.985C541.823,794.781 595.43,781.202 636.809,761.632C639.701,762.235 642.487,762.433 645.179,762.314C644.22,763.991 644.823,766.49 647.04,767.076L647.24,767.114C647.684,768.869 649.611,770.27 651.803,769.185C652.645,768.768 653.461,768.352 654.267,767.933C661.964,767.771 668.522,763.972 673.683,758.344C674.626,762.412 677.384,766.215 681.488,769.435C682.016,769.849 682.628,769.234 682.22,768.711C679.575,765.329 676.085,760.166 676.132,755.413C677.888,753.103 679.427,750.582 680.771,747.955C681.556,747.469 682.459,747.016 683.477,746.597C683.014,747.578 682.495,748.507 682.084,749.535C681.26,751.588 683.015,753.52 684.768,754.209C685.539,754.511 686.195,754.686 686.811,754.788C682.985,760.093 684.334,764.528 688.632,767.613C689.027,770.104 689.711,772.563 690.804,774.98C691.082,775.596 692.054,775.153 691.884,774.529C691.483,773.053 691.212,771.563 691.004,770.065C691.381,771.688 691.83,773.303 692.422,774.899C692.777,775.856 694.255,775.489 693.99,774.471C693.902,774.133 693.858,773.791 693.782,773.452C694.044,773.971 694.288,774.51 694.588,774.98C694.943,775.536 695.837,775.183 695.668,774.529C695.4,773.491 695.235,772.429 695.086,771.365C695.398,771.373 695.628,771.034 695.481,770.722C695.232,770.194 695.12,769.507 694.87,768.951L694.858,768.915C694.713,766.561 694.783,764.193 695.062,761.851C695.276,761.233 695.494,760.623 695.696,760.024C695.925,760.061 696.144,760.119 696.393,760.12C709.692,760.149 717.306,745.65 712.394,734.34C711.373,731.988 709.982,730.129 708.394,728.623C713.241,723.596 717.99,718.161 721.807,712.609C724.21,709.112 726.624,703.965 725.415,699.622C726.63,700.189 728.098,700.293 729.352,699.657C738.99,694.76 751.311,681.048 753.505,670.176C754.814,663.691 752.763,658.481 749.88,653.53C750.351,653.178 750.784,652.772 751.114,652.245C756.978,642.87 769.189,636.225 771.299,624.77C772.871,616.235 767.814,609.464 764.289,602.31C765.608,596.024 766.697,589.756 767.573,583.534C769.365,584.75 771.882,585.23 775.251,584.491C776.606,584.193 777.427,582.622 777.057,581.345C774.65,573.011 780.864,566.711 779.951,558.026C779.089,549.827 774.295,542.507 770.763,535.096C770.746,525.931 770.416,517.073 769.885,508.645C774.333,523.122 785.33,534.716 788.346,550.596C788.606,551.966 790.73,551.87 791.054,550.596C796.597,528.77 778.923,513.09 778.226,491.839C777.891,481.655 779.703,471.41 773.67,462.313C771.18,458.557 767.487,456.091 763.878,453.579C763.245,448.946 762.697,444.837 762.308,441.324C767.161,444.39 771.705,447.677 773.659,453.517C774.12,454.896 775.27,455.766 776.735,455.832C786.609,458.752 791.398,464.578 791.107,473.309C791.922,477.339 791.732,478.311 790.535,476.227C789.326,475.319 787.616,476.559 787.623,477.88C787.65,484.206 788.26,488.756 791.018,494.443C791.295,495.016 792.325,494.755 792.257,494.112C792.229,493.846 791.737,482.499 791.625,482.394C792.729,483.411 794.941,483.115 795.256,481.446C796.562,474.519 796.937,467.223 793.923,460.61Z" style="fill:rgb(26,11,11);fill-rule:nonzero;"/>
        </g>
        <g transform="matrix(4.16667,0,0,4.16667,377.843,-484.505)">
            <path d="M713.318,708.313C712.936,708.822 712.529,709.302 712.139,709.802C712.308,708.858 712.421,707.84 712.54,706.827C713.923,705.299 715.299,703.767 716.621,702.218C716.555,703.415 715.671,705.182 713.318,708.313ZM701.084,721.037C700.313,720.665 699.348,720.665 698.524,721.365C697.175,722.559 695.74,723.647 694.335,724.774L694.226,724.786C696.671,722.663 699.017,720.502 701.315,718.321C701.235,719.226 701.156,720.131 701.084,721.037ZM691.251,749.495C689.812,746.864 694.578,741.819 698.803,737.865C697.205,743.074 694.431,746.019 691.251,749.495ZM685.639,742.341C685.705,740.804 685.773,739.267 685.841,737.722C686.222,737.168 686.637,736.635 686.994,736.064C687.738,736.437 688.638,736.486 689.595,735.842C689.805,735.704 690.009,735.557 690.219,735.418C688.581,737.627 687.033,739.917 685.639,742.341ZM664.097,749.909C663.247,750.499 662.389,751.08 661.482,751.594C657.409,753.907 653.11,754.913 648.741,755.651C655.071,752.284 661.091,748.771 666.805,745.117C665.798,746.611 664.885,748.19 664.097,749.909ZM735.163,680.782C732.834,682.861 730.445,684.893 728.366,687.115C730.469,684.126 732.439,681.095 734.349,678.049C679.793,497.333 595.322,381.331 500.464,381.331C395.229,381.331 302.748,524.061 249.731,739.562C251.432,741.17 254.073,741.595 258.725,739.741C259.827,739.302 260.446,738.364 260.502,737.359C260.797,738.123 261.105,738.896 261.419,739.669C256.549,742.577 255.132,746.309 255.83,750.427C253.112,749.05 250.577,747.509 248.238,745.764C247.472,748.943 246.708,752.127 245.96,755.337C250.18,757.316 254.768,758.486 259.54,758.923C265.865,768.674 278.005,778.859 281.422,784.738C282.194,786.067 284.527,785.187 283.988,783.668C282.316,778.947 272.635,768.278 267.236,759.039C268.584,758.965 269.931,758.893 271.283,758.727C272.276,758.606 272.487,757.375 271.518,757.005C269.277,756.149 267.067,755.306 264.9,754.444C262.897,749.646 262.908,745.698 267.154,743.926C268.321,743.439 268.678,742.281 268.637,741.143C269.469,741.763 270.235,742.472 270.825,743.459C272.737,746.654 272.198,750.487 273.421,753.877C274.781,757.65 277.547,760.094 280.762,760.709C283.293,765.226 287.108,768.949 289.684,773.448C292.232,777.897 292.119,784.331 295.732,787.922C296.634,788.818 298.125,789.005 299.226,788.369C307.54,783.569 301.603,771.475 297.683,765.688C295.978,763.169 294.049,760.818 292.242,758.38C334.462,787.506 392.737,803.804 472.359,798.985C541.824,794.782 595.43,781.202 636.809,761.632C639.702,762.235 642.487,762.433 645.179,762.314C644.22,763.992 644.823,766.491 647.04,767.076L647.24,767.114C647.684,768.869 649.612,770.27 651.803,769.185C652.645,768.768 653.461,768.352 654.267,767.933C661.964,767.77 668.522,763.972 673.683,758.344C674.626,762.412 677.385,766.215 681.488,769.435C682.016,769.849 682.628,769.234 682.219,768.712C679.575,765.329 676.085,760.166 676.132,755.413C677.888,753.103 679.427,750.582 680.771,747.955C681.556,747.469 682.459,747.016 683.477,746.597C683.014,747.578 682.495,748.507 682.083,749.535C681.26,751.588 683.015,753.52 684.768,754.208C685.539,754.511 686.195,754.686 686.811,754.788C682.986,760.093 684.334,764.528 688.632,767.612C689.027,770.104 689.711,772.563 690.803,774.98C691.082,775.596 692.054,775.153 691.884,774.529C691.483,773.053 691.212,771.563 691.004,770.065C691.381,771.688 691.83,773.303 692.422,774.899C692.777,775.856 694.255,775.489 693.989,774.471C693.902,774.134 693.858,773.792 693.782,773.452C694.044,773.971 694.288,774.51 694.588,774.98C694.942,775.536 695.837,775.183 695.668,774.529C695.4,773.491 695.235,772.429 695.086,771.365C695.398,771.373 695.628,771.034 695.481,770.723C695.232,770.194 695.119,769.508 694.869,768.951L694.858,768.915C694.713,766.561 694.784,764.193 695.063,761.851C695.275,761.233 695.494,760.623 695.696,760.024C695.926,760.061 696.144,760.119 696.393,760.12C709.692,760.149 717.306,745.65 712.394,734.34C711.373,731.988 709.982,730.129 708.394,728.623C713.241,723.596 717.989,718.162 721.807,712.608C724.21,709.112 726.623,703.965 725.416,699.622C726.63,700.189 728.098,700.294 729.352,699.657C732.342,698.138 735.576,695.71 738.7,692.841C737.536,688.789 736.356,684.771 735.163,680.782Z" style="fill:rgb(14,7,7);fill-rule:nonzero;"/>
        </g>
    </g>
    <g id="nyak">
        <g id="nyak1" serif:id="nyak" transform="matrix(4.16667,0,0,4.16667,377.843,-484.505)">
            <path d="M405.652,852.495C405.652,852.495 452.301,735.678 430.252,661.439C408.202,587.201 560.547,607.317 560.547,607.317C560.547,607.317 543.259,711.046 549.546,767.626L539.29,829.57L484.033,909.297L405.652,852.495Z" style="fill:rgb(183,112,51);fill-rule:nonzero;"/>
        </g>
        <g transform="matrix(4.16667,0,0,4.16667,377.843,-484.505)">
            <path d="M669.447,788.683C610.84,773.208 548.189,742.208 548.189,742.208C548.189,742.208 531.095,821.06 495.487,820.655C460.098,820.254 433.986,741.444 433.986,741.444C433.986,741.444 380.13,773.208 321.522,788.683C314.484,790.542 309.598,797.063 309.941,804.335C310.539,817.041 315.603,837.399 337.703,858.034C337.703,858.034 337.202,873.167 338.166,892.856C380.601,912.832 430.974,924.457 485.06,924.457C550.04,924.457 609.69,907.716 656.599,879.805C656.545,868.615 656.109,861.152 656.109,861.152C678.208,840.516 680.43,817.041 681.029,804.335C681.37,797.063 676.485,790.542 669.447,788.683Z" style="fill:rgb(183,112,51);fill-rule:nonzero;"/>
        </g>
        <g transform="matrix(4.16667,0,0,4.16667,377.843,-484.505)">
            <path d="M560.319,608.714C541.061,603.173 522.164,609.21 534.724,664.509C557.316,763.979 482.227,900.102 482.227,900.102L484.033,909.297L535.171,830.944L549.546,767.626C543.686,714.88 558.311,621.173 560.319,608.714Z" style="fill:rgb(142,81,36);fill-rule:nonzero;"/>
        </g>
        <g transform="matrix(4.16667,0,0,4.16667,377.843,-484.505)">
            <path d="M548.253,746.48L548.25,746.48C547.628,717.529 550.702,682.735 553.932,655.183L553.933,655.182C550.703,682.735 547.63,717.527 548.253,746.48ZM436.171,707.441C436.169,707.439 436.169,707.439 436.167,707.438C436.157,692.222 434.645,677.398 430.952,663.894C434.648,677.402 436.163,692.22 436.171,707.441Z" style="fill:rgb(11,6,6);fill-rule:nonzero;"/>
        </g>
        <g transform="matrix(4.16667,0,0,4.16667,377.843,-484.505)">
            <path d="M548.25,746.48C547.628,717.526 550.702,682.733 553.932,655.183C550.702,682.735 547.628,717.529 548.25,746.48ZM535.597,746.334C506.235,744.559 471.446,730.046 436.171,707.441C436.163,692.22 434.648,677.402 430.952,663.894C440.238,669.223 449.224,673.716 457.537,677.157C468.312,682.056 478.549,684.801 487.673,684.801L487.907,684.801C487.97,684.801 488.033,684.801 488.097,684.8C488.3,684.799 488.508,684.795 488.714,684.789C489.155,684.779 489.591,684.762 490.027,684.739C490.801,684.78 491.586,684.801 492.371,684.801C505.663,684.803 520.459,678.877 535.655,668.906C540.495,693.517 539.63,720.167 535.597,746.334Z" style="fill:rgb(146,87,40);fill-rule:nonzero;"/>
        </g>
        <g transform="matrix(4.16667,0,0,4.16667,377.843,-484.505)">
            <path d="M541.574,746.517C539.609,746.517 537.615,746.456 535.597,746.334C539.63,720.167 540.495,693.517 535.655,668.906C541.707,664.934 547.822,660.321 553.932,655.183C550.702,682.733 547.628,717.526 548.25,746.48C547.515,746.461 546.779,746.444 546.047,746.408C544.571,746.481 543.083,746.517 541.574,746.517Z" style="fill:rgb(113,62,27);fill-rule:nonzero;"/>
        </g>
    </g>
    <g transform="matrix(4.16667,0,0,4.16667,386.766,-492.82)">
        <path d="M321.522,788.683C314.621,790.507 189.474,856.173 166.833,919.881C134.821,1009.96 129.447,1329.17 129.447,1329.17L272.505,1407.44L725.881,1411.18C776.147,1407.16 857.123,1312.96 857.123,1312.96C857.123,1312.96 859.809,992.002 825.639,928.718C794.936,871.857 676.359,790.509 669.447,788.683C643.076,781.72 615.905,771.617 593.972,762.606C595.364,765.9 596.286,773.015 580.484,776.176C574.183,777.436 407.916,783.037 402.848,779.659C390.569,771.472 392.519,764.289 393.464,762.186C373.459,771.392 347.985,781.696 321.522,788.683Z" style="fill:rgb(15,17,36);fill-rule:nonzero;"/>
    </g>
    <g transform="matrix(4.16667,0,0,4.16667,377.843,-484.505)">
        <path d="M594.352,767.701L665.101,800.464C665.101,800.464 671.199,821.967 651.166,849.098C651.166,849.098 665.974,821.201 653.956,805.038C645.317,793.418 594.352,767.701 594.352,767.701Z" style="fill:rgb(31,35,79);fill-rule:nonzero;"/>
    </g>
    <g transform="matrix(4.16651,0.0367246,-0.0367246,4.16651,394.714,-502.286)">
        <path d="M331.245,464.975C331.245,464.975 329.513,431.791 298.707,436.717C267.899,441.643 265.587,497.074 306.641,513.636C347.695,530.199 331.245,464.975 331.245,464.975Z" style="fill:rgb(141,80,36);fill-rule:nonzero;"/>
    </g>
    <g transform="matrix(4.16651,0.0367246,-0.0367246,4.16651,394.714,-502.286)">
        <path d="M646.841,473.416C646.841,473.416 642.24,344.57 609.261,307.757C580.816,276.003 502.734,294.463 481.808,300.137C460.882,294.463 381.831,257.883 353.384,289.637C320.405,326.45 316.773,473.416 316.773,473.416C316.773,473.416 305.269,549.342 346.684,596.126C387.88,642.664 456.622,684.855 487.833,684.801C515.807,684.855 575.733,642.664 616.929,596.126C658.344,549.342 646.841,473.416 646.841,473.416Z" style="fill:rgb(203,129,82);fill-rule:nonzero;"/>
    </g>
    <g transform="matrix(4.16651,0.0367246,-0.0367246,4.16651,394.714,-502.286)">
        <path d="M638.373,459.951C638.373,459.951 640.105,426.765 670.912,431.692C701.719,436.618 704.033,492.048 662.978,508.611C621.925,525.173 638.373,459.951 638.373,459.951Z" style="fill:rgb(203,129,82);fill-rule:nonzero;"/>
    </g>
    <g transform="matrix(4.16651,0.0367246,-0.0367246,4.16651,394.714,-502.286)">
        <path d="M672.016,439.098C663.993,434.136 645.82,442.446 647.255,467.571C648.688,492.696 669.471,495.378 674.052,490.101C678.634,484.825 668.607,465.617 661.823,467.18C655.038,468.744 657.053,438.528 675.531,450.627C690.78,460.611 681.047,444.682 672.016,439.098Z" style="fill:rgb(141,80,36);fill-rule:nonzero;"/>
    </g>
    <g transform="matrix(4.16651,0.0367246,-0.0367246,4.16651,394.714,-502.286)">
        <path d="M630.422,478.345C630.422,478.345 626.421,349.314 597.732,312.448C587.841,299.739 583.652,286.688 581.018,275.954C578.879,276.602 576.441,276.494 573.934,275.205C573.766,275.119 573.603,275.032 573.436,274.945C573.316,274.889 573.2,274.823 573.082,274.76C567.693,271.956 562.653,269.033 557.597,266.446C554.556,265.737 551.491,265.126 548.432,264.506C539.859,262.771 530.932,261.407 523.137,257.215C522.818,257.043 522.55,256.838 522.265,256.643C471.326,266.586 393.4,290.056 375.973,312.448C347.284,349.314 343.281,478.345 343.281,478.345C343.281,478.345 333.273,554.38 369.302,601.231C405.142,647.836 456.032,686.574 490.027,684.739C524.021,686.574 568.562,647.836 604.405,601.231C640.431,554.38 630.422,478.345 630.422,478.345Z" style="fill:rgb(181,112,50);fill-rule:nonzero;"/>
    </g>
    <g transform="matrix(4.16651,0.0367246,-0.0367246,4.16651,394.714,-502.286)">
        <path d="M441.233,665.445C440.545,664.993 439.858,664.534 439.169,664.068C439.054,663.991 438.94,663.912 438.826,663.834C438.235,663.434 437.643,663.027 437.052,662.616C436.906,662.515 436.761,662.414 436.616,662.313C436.041,661.911 435.466,661.507 434.892,661.096C434.751,660.997 434.61,660.897 434.471,660.797C433.863,660.36 433.254,659.919 432.645,659.473C432.548,659.402 432.451,659.333 432.355,659.261C430.194,657.675 428.032,656.028 425.874,654.326L425.613,654.119C425,653.634 424.387,653.144 423.774,652.65C423.623,652.529 423.474,652.408 423.325,652.286C422.768,651.835 422.211,651.381 421.656,650.923C421.489,650.786 421.323,650.649 421.157,650.511C420.605,650.054 420.051,649.592 419.499,649.127C419.346,648.998 419.192,648.869 419.039,648.74C418.439,648.231 417.837,647.719 417.237,647.203C417.14,647.119 417.043,647.036 416.946,646.952C415.517,645.72 414.093,644.466 412.673,643.189L412.515,643.045C411.884,642.477 411.254,641.904 410.625,641.328C410.459,641.176 410.294,641.024 410.128,640.871C409.608,640.393 409.089,639.911 408.571,639.427C408.372,639.242 408.174,639.055 407.976,638.869C407.486,638.409 406.997,637.946 406.508,637.482C406.304,637.287 406.099,637.092 405.896,636.897C405.399,636.421 404.903,635.942 404.407,635.462C404.223,635.283 404.038,635.104 403.853,634.924C403.296,634.38 402.738,633.831 402.182,633.28C402.066,633.166 401.95,633.052 401.833,632.938C400.479,631.591 399.132,630.227 397.793,628.848C397.62,628.668 397.447,628.488 397.273,628.308C396.789,627.806 396.306,627.304 395.824,626.798C395.605,626.567 395.386,626.337 395.167,626.106C394.731,625.645 394.297,625.184 393.862,624.721C393.629,624.471 393.394,624.22 393.161,623.969C392.738,623.514 392.316,623.055 391.894,622.598C391.664,622.348 391.434,622.096 391.203,621.844C390.768,621.367 390.333,620.887 389.898,620.406C389.691,620.175 389.483,619.947 389.276,619.716C388.752,619.133 388.231,618.546 387.711,617.958C387.599,617.831 387.487,617.707 387.375,617.579C386.741,616.86 386.111,616.137 385.483,615.412C385.334,615.24 385.186,615.066 385.037,614.893C384.565,614.344 384.093,613.795 383.624,613.243C383.404,612.984 383.186,612.724 382.967,612.464C382.57,611.995 382.175,611.525 381.781,611.053C381.542,610.767 381.304,610.48 381.066,610.193C380.692,609.741 380.318,609.288 379.946,608.833C379.706,608.541 379.466,608.248 379.228,607.954C378.853,607.493 378.479,607.03 378.107,606.567C377.88,606.285 377.651,606.002 377.426,605.72C377.025,605.217 376.627,604.713 376.229,604.209C376.036,603.965 375.843,603.722 375.651,603.476C375.067,602.73 374.484,601.981 373.907,601.231C337.879,554.38 347.886,478.345 347.886,478.345C347.886,478.345 351.891,349.314 380.579,312.448C380.902,312.033 381.233,311.623 381.567,311.214C381.674,311.083 381.784,310.954 381.893,310.824C382.124,310.547 382.356,310.27 382.592,309.997C382.719,309.848 382.85,309.7 382.98,309.553C383.205,309.297 383.43,309.042 383.658,308.789C383.792,308.643 383.926,308.496 384.06,308.35C384.299,308.092 384.54,307.836 384.781,307.582C384.907,307.449 385.032,307.315 385.16,307.184C385.45,306.883 385.743,306.586 386.039,306.29L386.281,306.048C386.664,305.67 387.052,305.294 387.445,304.922L387.663,304.719C387.983,304.419 388.306,304.121 388.631,303.825C388.756,303.712 388.881,303.6 389.008,303.489C389.288,303.238 389.569,302.989 389.855,302.742C389.991,302.623 390.129,302.505 390.265,302.387C390.55,302.144 390.838,301.903 391.125,301.662C391.257,301.552 391.389,301.443 391.522,301.333C391.843,301.07 392.166,300.809 392.492,300.549C392.591,300.471 392.69,300.391 392.789,300.313C393.662,299.625 394.549,298.953 395.451,298.295L395.688,298.127C396.057,297.859 396.43,297.594 396.803,297.331C396.92,297.251 397.036,297.171 397.15,297.09C397.499,296.849 397.849,296.61 398.2,296.372C398.318,296.293 398.435,296.216 398.552,296.138C398.924,295.889 399.298,295.643 399.674,295.4C399.766,295.341 399.857,295.281 399.948,295.223C401.389,294.298 402.858,293.405 404.353,292.549L404.523,292.453C404.961,292.202 405.403,291.954 405.845,291.709L406.085,291.578C406.523,291.337 406.962,291.101 407.402,290.866L407.597,290.762C409.66,289.669 411.761,288.639 413.888,287.669L413.973,287.632C414.477,287.401 414.984,287.174 415.492,286.952L415.597,286.904C418.295,285.723 421.027,284.636 423.772,283.643L423.821,283.626C424.36,283.43 424.902,283.239 425.443,283.051L425.466,283.042C426.018,282.851 426.569,282.663 427.12,282.479C439.431,278.37 451.784,276.11 462.012,275.486C451.153,274.734 435.461,276.305 419.285,280.601C393.703,274.936 367.401,273.992 353.384,289.637C320.405,326.45 316.773,473.416 316.773,473.416C316.773,473.416 305.269,549.342 346.684,596.126C387.88,642.664 456.622,684.855 487.833,684.801C488.462,684.804 489.113,684.775 489.773,684.735C475.411,683.976 458.525,676.823 441.233,665.445Z" style="fill:rgb(141,80,36);fill-rule:nonzero;"/>
    </g>
    <g transform="matrix(4.16651,0.0367246,-0.0367246,4.16651,394.714,-502.286)">
        <path d="M297.603,444.123C305.626,439.162 323.799,447.47 322.365,472.596C320.931,497.721 300.149,500.402 295.567,495.127C290.986,489.85 301.011,470.642 307.795,472.205C314.581,473.769 312.566,443.552 294.089,455.651C278.84,465.635 288.572,449.708 297.603,444.123Z" style="fill:rgb(102,51,19);fill-rule:nonzero;"/>
    </g>
    <g transform="matrix(4.16651,0.0367246,-0.0367246,4.16651,394.714,-502.286)">
        <path d="M511.78,554.268C511.78,554.268 517.877,552.204 516.697,545.81C515.516,539.418 512.077,530.468 504.305,530.861C504.305,530.861 508.142,528.107 512.077,530.468C516.01,532.828 519.551,546.007 518.468,548.86C517.386,551.712 515.124,553.678 511.78,554.268Z" style="fill:rgb(102,51,19);fill-rule:nonzero;"/>
    </g>
    <g transform="matrix(4.16651,0.0367246,-0.0367246,4.16651,394.714,-502.286)">
        <path d="M455.587,554.268C455.587,554.268 449.49,552.204 450.669,545.81C451.85,539.418 455.293,530.468 463.062,530.861C463.062,530.861 459.226,528.107 455.293,530.468C451.358,532.828 447.817,546.007 448.9,548.86C449.981,551.712 452.243,553.678 455.587,554.268Z" style="fill:rgb(102,51,19);fill-rule:nonzero;"/>
    </g>
    <g transform="matrix(4.16651,0.0367246,-0.0367246,4.16651,394.714,-502.286)">
        <path d="M509.781,553.285C509.781,553.285 507.551,542.597 501.649,543.58C495.747,544.564 495.136,551.849 485.667,551.819C476.197,551.787 474.308,544.437 469.588,543.517C464.867,542.597 460.605,553.81 460.605,553.81C460.605,553.81 465.85,548.105 470.374,550.071C474.898,552.039 481.848,556.403 488.405,555.498C494.962,554.595 496.535,548.421 501.061,549.541C505.583,550.662 509.781,553.285 509.781,553.285Z" style="fill:rgb(141,80,36);fill-rule:nonzero;"/>
    </g>
    <g transform="matrix(4.16651,0.0367246,-0.0367246,4.16651,394.714,-502.286)">
        <path d="M460.605,553.81C460.605,553.81 464.146,546.727 468.867,548.301C473.587,549.875 480.014,555.252 488.144,554.464C496.274,553.678 497.849,547.252 501.914,547.908C505.977,548.563 509.781,552.76 509.781,553.285C509.781,553.285 503.161,550.007 500.472,550.596C497.783,551.187 490.832,555.711 486.373,555.777C481.914,555.842 473.721,552.432 471.621,551.776C469.523,551.121 464.537,549.744 460.605,553.81Z" style="fill:rgb(102,51,19);fill-rule:nonzero;"/>
    </g>
    <g transform="matrix(4.16651,0.0367246,-0.0367246,4.16651,394.714,-502.286)">
        <path d="M466.573,527.93C466.573,527.93 475.292,520.761 499.42,525.286C499.42,525.286 492.577,501.969 487.103,484.893C481.808,468.368 461.807,431.144 468.399,475.333C472.409,502.215 472.409,522.642 466.573,527.93Z" style="fill:rgb(203,129,82);fill-rule:nonzero;"/>
    </g>
    <g transform="matrix(4.16651,0.0367246,-0.0367246,4.16651,394.714,-502.286)">
        <path d="M469.92,522.642C469.92,522.642 479.154,440.375 426.811,388.577L396.976,381.905C396.976,381.905 469.876,423.798 469.92,522.642Z" style="fill:rgb(141,80,36);fill-rule:nonzero;"/>
    </g>
    <g transform="matrix(4.16651,0.0367246,-0.0367246,4.16651,394.714,-502.286)">
        <path d="M515.713,483.996C515.513,477.223 507.296,406.86 552.849,398.069C600.835,388.808 623.006,441.284 623.006,441.284L515.713,483.996Z" style="fill:rgb(141,80,36);fill-rule:nonzero;"/>
    </g>
    <g transform="matrix(4.16651,0.0367246,-0.0367246,4.16651,394.714,-502.286)">
        <path d="M448.233,478.734C447.824,471.971 449.692,401.155 403.535,396.488C354.911,391.572 337.54,445.825 337.54,445.825L448.233,478.734Z" style="fill:rgb(141,80,36);fill-rule:nonzero;"/>
    </g>
    <g transform="matrix(4.16651,0.0367246,-0.0367246,4.16651,394.714,-502.286)">
        <path d="M446.831,479.459C446.831,479.459 443.045,464.569 429.803,452.603C421.496,445.097 409.468,438.742 392.32,437.936C391.434,437.894 390.559,437.874 389.703,437.874C387.713,437.874 385.806,437.984 383.98,438.194C366.045,440.253 356.064,451.932 354.483,463.353C354.418,463.327 354.355,463.301 354.29,463.274C354.748,458.38 356.56,453.359 359.707,448.925C367.043,441.288 377.58,435.086 389.686,434.915C390.419,434.918 391.148,434.913 391.903,434.949C394.683,435.079 397.33,435.367 399.85,435.792C412.451,437.92 421.871,443.481 428.831,449.951C430.223,451.244 431.517,452.574 432.718,453.92C435.12,456.613 437.151,459.37 438.859,462.03C442.271,467.351 444.387,472.281 445.573,475.531C446.018,476.75 446.333,477.733 446.536,478.41C446.739,479.086 446.831,479.459 446.831,479.459Z" style="fill:rgb(4,5,5);fill-rule:nonzero;"/>
    </g>
    <g transform="matrix(4.16651,0.0367246,-0.0367246,4.16651,394.714,-502.286)">
        <path d="M530.286,402.039C528.101,403.123 513.994,412.756 512.427,410.758C510.862,408.761 510.647,398.9 516.755,396.419C522.861,393.937 572.829,368.655 631.947,394.083C631.947,394.083 578.973,377.863 530.286,402.039Z" style="fill:rgb(39,15,10);fill-rule:nonzero;"/>
    </g>
    <g transform="matrix(4.16651,0.0367246,-0.0367246,4.16651,394.714,-502.286)">
        <path d="M430.578,398.698C432.753,399.544 447.03,407.515 448.35,405.477C449.671,403.438 449.028,394.019 442.994,392.178C436.96,390.338 387.156,370.53 332.987,399.847C332.987,399.847 382.09,379.835 430.578,398.698Z" style="fill:rgb(39,15,10);fill-rule:nonzero;"/>
    </g>
    <g transform="matrix(4.16651,0.0367246,-0.0367246,4.16651,394.714,-502.286)">
        <path d="M602.375,552.714C589.153,552.713 567.377,533.375 565.908,524.116C564.104,512.738 615.75,497.662 615.75,497.662C618.642,496.619 621.007,496.142 622.914,496.142C640.713,496.142 618.416,537.793 609.762,549.325C607.978,551.702 605.401,552.714 602.375,552.714ZM615.218,501.436C613.895,501.436 612.253,501.768 610.245,502.492C610.245,502.492 574.387,512.959 575.639,520.858C576.658,527.287 591.778,540.714 600.958,540.715C603.059,540.715 604.848,540.012 606.087,538.362C612.096,530.355 627.576,501.436 615.218,501.436Z" style="fill:rgb(191,124,66);fill-rule:nonzero;"/>
    </g>
    <g transform="matrix(4.16651,0.0367246,-0.0367246,4.16651,394.714,-502.286)">
        <path d="M358.28,548.162C355.254,548.162 352.678,547.15 350.893,544.772C350.676,544.483 350.449,544.173 350.216,543.846C349.2,538.363 348.448,532.969 347.902,527.777C350.13,531.837 352.346,535.338 353.938,537.459C355.256,539.215 357.16,539.963 359.396,539.963C369.166,539.963 385.259,525.671 386.343,518.83C387.677,510.422 349.512,499.282 349.512,499.282C348.464,498.904 347.512,498.627 346.645,498.442C346.673,496.767 346.717,495.176 346.771,493.673C356.01,496.507 396.345,509.486 394.746,519.563C393.279,528.823 371.502,548.162 358.28,548.162Z" style="fill:rgb(191,124,66);fill-rule:nonzero;"/>
    </g>
    <g transform="matrix(4.16651,0.0367246,-0.0367246,4.16651,394.714,-502.286)">
        <path d="M350.216,543.846C341.144,531.173 320.389,491.589 337.741,491.589C339.648,491.589 342.013,492.067 344.905,493.11C344.905,493.11 345.58,493.307 346.771,493.673C346.717,495.176 346.673,496.767 346.645,498.442C345.744,498.25 344.937,498.159 344.219,498.159C334.34,498.159 341.176,515.522 347.902,527.777C348.448,532.969 349.2,538.363 350.216,543.846Z" style="fill:rgb(157,94,50);fill-rule:nonzero;"/>
    </g>
    <g transform="matrix(4.16651,0.0367246,-0.0367246,4.16651,394.714,-502.286)">
        <path d="M600.958,540.715C591.778,540.714 576.658,527.287 575.639,520.858C574.387,512.959 610.245,502.492 610.245,502.492C612.253,501.768 613.895,501.436 615.218,501.436C627.576,501.436 612.096,530.355 606.087,538.362C604.848,540.012 603.059,540.715 600.958,540.715Z" style="fill:rgb(201,135,79);fill-rule:nonzero;"/>
    </g>
    <g transform="matrix(4.16651,0.0367246,-0.0367246,4.16651,394.714,-502.286)">
        <path d="M607.288,512.833C607.144,512.648 607,512.462 606.855,512.278C604.484,509.234 599.636,511.923 599.636,515.268C599.636,518.623 604.498,521.284 606.855,518.258C607,518.073 607.144,517.887 607.288,517.702C608.545,516.089 608.556,514.462 607.288,512.833Z" style="fill:white;fill-rule:nonzero;"/>
    </g>
    <g transform="matrix(4.16651,0.0367246,-0.0367246,4.16651,394.714,-502.286)">
        <path d="M596.869,520.314C595.143,520.314 595.141,522.996 596.869,522.996C598.595,522.996 598.599,520.314 596.869,520.314Z" style="fill:white;fill-rule:nonzero;"/>
    </g>
    <g transform="matrix(4.16651,0.0367246,-0.0367246,4.16651,394.714,-502.286)">
        <path d="M359.396,539.963C357.16,539.963 355.256,539.215 353.938,537.459C352.346,535.338 350.13,531.837 347.902,527.777C347.168,520.806 346.805,514.197 346.672,508.212C347.848,515 353.749,525.486 356.653,529.356C357.568,530.576 358.89,531.095 360.443,531.095C367.227,531.095 378.399,521.173 379.152,516.424C380.078,510.586 353.581,502.851 353.581,502.851C352.097,502.316 350.883,502.071 349.905,502.071C347.985,502.071 346.974,503.016 346.617,504.565C346.601,502.424 346.613,500.378 346.645,498.442C347.512,498.627 348.464,498.904 349.512,499.282C349.512,499.282 387.677,510.422 386.343,518.83C385.259,525.671 369.166,539.963 359.396,539.963Z" style="fill:rgb(201,135,79);fill-rule:nonzero;"/>
    </g>
    <g transform="matrix(4.16651,0.0367246,-0.0367246,4.16651,394.714,-502.286)">
        <path d="M347.902,527.777C341.176,515.522 334.34,498.159 344.219,498.159C344.937,498.159 345.744,498.25 346.645,498.442C346.613,500.378 346.601,502.424 346.617,504.565C346.387,505.562 346.428,506.807 346.672,508.212C346.805,514.197 347.168,520.806 347.902,527.777Z" style="fill:rgb(171,107,64);fill-rule:nonzero;"/>
    </g>
    <g transform="matrix(4.16651,0.0367246,-0.0367246,4.16651,394.714,-502.286)">
        <path d="M360.443,531.095C358.89,531.095 357.568,530.576 356.653,529.356C353.749,525.486 347.848,515 346.672,508.212C346.644,506.967 346.626,505.753 346.617,504.565C346.974,503.016 347.985,502.071 349.905,502.071C350.883,502.071 352.097,502.316 353.581,502.851C353.581,502.851 380.078,510.586 379.152,516.424C378.399,521.173 367.227,531.095 360.443,531.095Z" style="fill:rgb(209,146,90);fill-rule:nonzero;"/>
    </g>
    <g transform="matrix(4.16651,0.0367246,-0.0367246,4.16651,394.714,-502.286)">
        <path d="M346.672,508.212C346.428,506.807 346.387,505.562 346.617,504.565C346.626,505.753 346.644,506.967 346.672,508.212Z" style="fill:rgb(183,120,78);fill-rule:nonzero;"/>
    </g>
    <g transform="matrix(4.16651,0.0367246,-0.0367246,4.16651,394.714,-502.286)">
        <path d="M355.766,510.492C355.873,510.355 355.979,510.219 356.086,510.082C357.838,507.833 361.42,509.819 361.42,512.292C361.42,514.771 357.828,516.737 356.086,514.501C355.979,514.364 355.873,514.227 355.766,514.09C354.837,512.898 354.828,511.696 355.766,510.492Z" style="fill:white;fill-rule:nonzero;"/>
    </g>
    <g transform="matrix(4.16651,0.0367246,-0.0367246,4.16651,394.714,-502.286)">
        <path d="M363.465,516.02C364.74,516.02 364.743,518.003 363.465,518.003C362.19,518.003 362.187,516.02 363.465,516.02Z" style="fill:white;fill-rule:nonzero;"/>
    </g>
    <g transform="matrix(4.16651,0.0367246,-0.0367246,4.16651,394.714,-502.286)">
        <path d="M417.329,580.108L417.248,580.041L417.3,580.096L417.329,580.108Z" style="fill:rgb(223,111,70);fill-rule:nonzero;"/>
    </g>
    <g transform="matrix(4.16651,0.0367246,-0.0367246,4.16651,394.714,-502.286)">
        <path d="M488.405,524.566C488.405,524.566 475.814,525.09 469.258,527.583C462.702,530.074 473.994,515.263 488.405,524.566Z" style="fill:white;fill-rule:nonzero;"/>
    </g>
    <g transform="matrix(4.16651,0.0367246,-0.0367246,4.16651,394.714,-502.286)">
        <path d="M506.408,246.018C506.062,245.758 505.697,245.575 505.325,245.432C505.646,245.265 505.991,245.082 506.268,244.943C507.295,244.43 508.344,243.957 509.404,243.513C509.203,244.381 509.164,245.326 509.54,246.408C509.793,247.138 510.015,247.859 510.249,248.584C508.95,247.803 507.668,246.963 506.408,246.018ZM452.641,263.779C452.489,263.904 452.337,264.03 452.183,264.157C451.869,264.04 451.522,263.981 451.133,264.069C447.982,264.79 445.54,266.773 443.112,268.785C440.831,269.417 438.432,269.806 436.003,270.133C437.856,268.284 439.559,266.27 441.071,264.132C441.26,264.087 441.443,264.114 441.634,264.039C444.408,262.948 446.992,262.227 449.527,261.773C451.076,262.035 452.591,262.218 454.112,262.408C453.619,262.848 453.126,263.283 452.641,263.779ZM396.242,275.465C394.697,275.259 393.152,275.12 391.61,275.069C392.087,274.688 392.523,274.275 393.013,273.902C394.213,273.173 395.427,272.461 396.6,271.7C396.003,272.877 395.928,274.242 396.242,275.465ZM378.727,271.243C377.457,271.511 376.171,271.739 374.894,271.995C375.429,271.45 375.937,270.887 376.439,270.32C379.248,270.185 382.066,270.134 384.891,270.133C382.858,270.388 380.825,270.802 378.727,271.243ZM674.554,413.502C673.582,413.546 672.611,413.591 671.64,413.636C669.612,401.99 662.347,403.241 651.642,400.412C651.893,394.513 651.846,388.597 651.847,382.547C651.848,379.816 649.757,378.09 647.483,377.692C644.21,353.619 637.09,330.507 623.617,309.434C623.093,308.615 622.343,308.07 621.527,307.678C617.442,299.306 612.484,291.446 607.113,284.532C604.086,280.635 597.358,283.959 597.539,288.497C597.548,288.721 597.577,288.939 597.588,289.162C596.149,286.821 593.805,286.485 591.786,287.364C591.245,285.233 590.622,283.092 589.825,280.925C588.781,278.089 585.938,277.002 583.531,277.516C583.431,277.314 583.321,277.115 583.221,276.913C582.861,276.184 582.399,275.616 581.87,275.186C580.655,273.441 579.37,271.723 578.136,269.987C579.877,267.159 582.501,264.201 586.022,260.867C587.255,259.699 585.679,257.729 584.231,258.547C580.836,260.465 577.541,262.777 574.907,265.493C573.434,263.458 572.011,261.404 570.511,259.376C567.138,254.812 557.884,257.286 560.391,263.642C560.568,264.091 560.794,264.508 560.979,264.952L560.949,264.965L561.043,265.093C561.177,265.41 561.327,265.716 561.464,266.031C552.663,257.555 544.456,248.395 534.874,240.672C530.897,237.465 525.853,239.637 525.283,244.644C525.216,245.241 525.202,245.795 525.163,246.368C523.162,244.497 521.138,242.651 519.044,240.875C518.853,240.714 518.622,240.636 518.418,240.504C523.547,239.127 528.815,238.152 533.935,237.188C535.811,236.834 535.221,233.997 533.349,234.292C520.867,236.26 506.098,238.425 495.559,246.048C495.201,246.307 494.824,246.595 494.436,246.903C493.74,246.407 493.035,245.955 492.343,245.432C491.748,244.983 491.122,244.731 490.494,244.596C491.908,242.363 493.223,240.068 494.307,237.623C495.603,234.699 492.87,231.293 489.732,233.048C483.943,236.287 479.222,240.837 475.14,245.983C467.258,245.44 459.108,246.182 450.227,246.069C449.468,246.059 448.807,246.201 448.202,246.41C448.223,246.236 448.263,246.063 448.281,245.888C448.523,243.474 445.299,242.583 443.767,244.019C440.628,246.96 438.288,250.155 436.196,253.342C430.248,256.015 424.298,258.655 418.555,261.784C417.555,262.328 416.951,263.064 416.597,263.861C416.133,264.004 415.671,264.152 415.207,264.295C414.501,262.763 413.046,261.57 411.202,261.634C401.075,261.984 391.521,261.42 382.157,261.506C383.421,258.583 384.246,255.4 384.426,251.86C384.537,249.69 381.636,248.599 380.179,250.101C376.471,253.92 373.437,258.037 370.33,262.088C362.327,262.881 354.345,264.65 346.136,268.408C342.173,270.223 345.005,277.087 349.132,275.515C353.32,273.92 357.55,272.796 361.809,271.985C360.635,273.126 359.41,274.241 358.074,275.296C352.087,280.027 346.077,284.471 340.665,289.808C330.109,296.086 321.276,304.956 316.158,316.332C315.082,318.723 317.853,321.271 319.944,319.254C320.229,318.978 320.502,318.723 320.786,318.45C321.003,319.103 321.415,319.666 321.999,320.113C321.971,320.226 321.937,320.337 321.91,320.451C314.773,330.716 309.296,341.36 306.187,350.811C305.509,352.871 308.369,354.498 309.826,352.928C314.838,347.531 319.235,341.66 323.514,335.694C323.544,335.789 323.574,335.882 323.605,335.976C319.682,342.954 316.539,350.483 315.436,358.049C311.01,366.566 306.613,373.666 305.466,375.618C303.909,378.269 307.19,382.078 309.934,380.087C311.599,378.878 313.114,377.708 314.55,376.547C314.266,379.588 313.697,382.667 312.436,385.875C309.905,392.315 306.99,393.992 307.556,401.153C307.674,402.649 309.102,403.926 310.516,403.894C310.188,404.526 309.885,405.172 309.627,405.846C308.016,410.053 308.017,412.728 307.776,417.046C307.305,425.486 307.096,430.362 303.731,438.062C303.106,439.491 301.197,440.247 300.54,441.777C295.761,452.927 307.947,463.22 310.787,472.93C313.813,483.279 308.875,493.693 307.636,504.3C305.774,520.235 309.687,534.905 328.358,529.151C328.996,528.954 328.92,527.86 328.192,527.929C297.998,530.794 317.137,494.48 317.091,478.87C317.057,467.646 307.726,460.465 307.508,449.323C307.324,439.836 314.103,435.285 314.922,425.542C315.797,415.11 316.111,407.458 320.15,397.775C322.171,392.93 324.352,388.847 324.868,383.394C325.104,380.89 323.532,378.438 323.536,376.05C323.78,372.726 324.025,369.402 324.27,366.077C325.168,364.648 325.974,363.138 326.661,361.513C326.992,361.3 327.324,361.088 327.655,360.876C327.797,360.532 328.42,360.354 328.587,359.943C330.483,355.286 330.745,350.819 330.409,346.355C332.255,337.575 334.68,330.185 334.427,320.947C334.586,320.728 334.765,320.526 334.926,320.309C335.71,321.043 337.092,321.251 337.913,320.395C340.367,317.84 342.453,314.671 344.34,311.434C344.723,314.244 345.642,316.999 345.287,319.929C344.465,326.703 337.802,330.31 335.936,336.208C332.665,346.549 335.856,358.549 343.621,365.818C344.175,366.336 345.203,365.644 344.721,364.97C340.956,359.845 339.19,354.076 339.424,347.664C338.553,340.119 340.943,335.657 346.596,334.282C346.847,333.809 347.831,333.773 348.141,333.093C352.084,324.458 349.149,310.939 357.508,304.465C362.209,300.823 365.696,302.562 371.223,295.929C373.22,293.532 375.149,291.283 377.064,289.122C379.291,288.283 381.519,287.457 383.726,286.588C382.25,287.394 380.898,288.364 379.618,289.427C374.971,292.574 371.419,296.359 371.03,302.126C363.787,308.268 360.062,315.861 367.234,324.291C368.029,325.225 369.644,323.993 368.944,322.971C364.222,316.085 366.321,310.656 371.832,306.399C372.286,306.437 372.781,306.177 372.82,305.653C386.37,296.196 416.999,292.863 424.193,292.386C431.664,291.891 439.857,291.671 446.291,287.343C452.417,283.224 458.509,267.636 467.646,271.069C469.851,271.898 472.857,270.535 473.936,268.51C475.1,266.325 476.428,264.256 477.811,262.227C479.624,262.042 481.392,261.979 483.124,262.059C482.622,263.985 482.547,265.895 483.141,267.684C485.35,274.352 493.388,274.052 499.052,274.933C500.719,275.192 502.42,275.423 504.09,275.684C504.789,277.768 505.302,279.865 506.53,281.33C509.19,284.508 513.695,286.944 517.486,289.264C516.429,292.354 514.049,295.711 513.612,298.936C512.533,306.916 514.701,315.285 521.883,319.567C525.613,321.79 530.14,321.768 534.233,322.744C545.939,325.535 544.592,326.798 540.667,337.186C531.938,360.289 540.978,372.404 565.468,375.636C568.036,375.975 568.486,372.309 566.322,371.403C553.05,365.846 542.845,361.27 546.641,345.723C548.385,338.577 552.166,331.655 554.856,324.831C555.47,323.273 551.534,320.622 553.184,319.923C575.215,310.587 516.012,315.326 522.817,293.069C523.026,292.383 523.281,291.734 523.559,291.108C526.373,291.691 529.348,292.683 532.019,293.82C532.287,294.167 532.62,294.478 533.089,294.697C537.964,296.981 544.595,300.152 550.237,300.311C556.597,307.203 559.629,316.843 566.716,322.557C575.045,329.274 577.64,324.516 581.936,338.884C583.909,345.485 582.937,346.374 587.922,350.958C589.36,352.281 592.227,351.361 593.74,352.307C597.024,355.247 600.309,358.187 603.594,361.127C603.05,363.944 602.895,366.782 603.13,369.641C604.419,375.621 606.653,375.988 611.077,379.428C611.903,380.07 613.616,380.16 615.151,380.166C616.09,384.69 612.365,383.736 610.343,390.034C607.434,399.09 617.001,407.535 622.469,413.427C622.886,413.876 623.497,413.225 623.128,412.767C618.191,406.64 606.095,393.834 619.572,386.929C620.339,386.536 620.514,385.666 620.397,384.9C620.202,383.621 619.924,382.353 619.606,381.093C631.443,387.17 626.557,387.711 630.856,396.555C631.454,397.784 632.279,398.82 633.203,399.77C633.28,400.007 633.36,400.226 633.436,400.464C637.959,414.601 628.333,413.781 625.895,424.207C623.61,433.971 632.141,444.121 634.888,452.881C638.663,464.918 628.09,472.648 630.618,483.278C631.402,486.574 634.454,488.074 635.662,490.851C639.89,500.577 635.803,502.414 631.281,510.297C622.033,526.412 636.946,533.962 650.605,538.729C650.83,538.808 650.99,538.497 650.831,538.339C647.883,535.398 639.585,530.104 637.612,527.296C626.697,511.753 637.72,514.595 640.961,507.916C644.353,500.928 645.844,499.519 644.624,491.964C642.984,481.807 638.399,496.636 639.813,473.579C639.922,471.8 641.807,470.279 641.952,468.391C642.642,459.361 642.315,455.238 639.069,447.199C635.29,437.842 631.12,431.24 635.746,421.11C637.06,418.232 639.282,420.401 640.271,416.424C640.342,416.138 640.38,415.862 640.44,415.58C642.129,419.778 648.987,421.226 650.039,415.63C650.526,413.04 650.863,410.466 651.125,407.898C657.775,409.936 663.462,412.223 663.746,418.003C663.884,420.784 666.313,422.699 669.06,422.05C671.208,421.543 673.357,421.035 675.505,420.527C679.392,419.609 678.61,413.315 674.554,413.502Z" style="fill:rgb(26,11,11);fill-rule:nonzero;"/>
    </g>
    <g transform="matrix(4.16667,0,0,4.16667,377.843,-484.505)">
        <path d="M379.512,774.435L321.245,795.272C321.245,795.272 314.788,812.001 328.492,835.207C328.492,835.207 318.965,811.784 329.676,799.772C337.375,791.137 379.512,774.435 379.512,774.435Z" style="fill:rgb(31,35,79);fill-rule:nonzero;"/>
    </g>
    <g id="right-eye" serif:id="right eye" transform="matrix(1,0,0,1,1038.57,0)">
        <g id="_-Curve-" serif:id="(Curve)" transform="matrix(4.16651,0.0367246,-0.0367246,4.16651,-643.855,-502.286)">
            <path d="M446.831,479.459C446.831,479.459 436.386,437.038 391.903,434.949C356.681,433.295 345.747,468.109 360.666,481.375C375.588,494.642 413.96,496.275 443.839,482.293C443.839,482.293 446.965,483.814 448.163,482.788C448.846,482.206 448.788,480.296 446.831,479.459Z" style="fill:rgb(250,243,232);fill-rule:nonzero;"/>
        </g>
        <g id="_-Curve-1" serif:id="(Curve)" transform="matrix(4.16651,0.0367246,-0.0367246,4.16651,-643.855,-502.286)">
            <path d="M354.254,463.839C366.567,508.146 431.697,486.852 436.353,474.555C441.074,462.088 414.274,442.451 414.274,442.451C414.274,442.451 416.091,442.488 418.811,442.542C440.867,455.291 446.831,479.459 446.831,479.459C448.788,480.296 448.846,482.204 448.163,482.788C446.965,483.814 443.839,482.293 443.839,482.293C413.96,496.275 375.588,494.642 360.666,481.375C355.873,477.113 353.763,470.625 354.254,463.839Z" style="fill:rgb(241,220,220);fill-rule:nonzero;"/>
        </g>
        <g id="eye" transform="matrix(0.999961,0.00881389,-0.00881389,0.999961,16.9672,20.1185)">
            <g transform="matrix(4.16667,0,0,4.16667,-660.726,-484.505)">
                <path d="M373.283,463.332C374.715,479.228 388.762,490.955 404.659,489.522C420.555,488.089 432.282,474.041 430.849,458.145C429.417,442.248 415.369,430.523 399.472,431.955C383.576,433.389 371.85,447.436 373.283,463.332Z" style="fill:rgb(71,20,14);fill-rule:nonzero;"/>
            </g>
            <g transform="matrix(4.16667,0,0,4.16667,-660.726,-484.505)">
                <path d="M383.495,463.469C384.379,473.284 393.054,480.525 402.87,479.641C412.685,478.756 419.925,470.081 419.041,460.266C418.156,450.451 409.483,443.21 399.668,444.095C389.851,444.979 382.61,453.653 383.495,463.469Z" style="fill:rgb(5,6,6);fill-rule:nonzero;"/>
            </g>
            <g transform="matrix(4.16667,0,0,4.16667,-660.726,-484.505)">
                <path d="M399.277,465.786C398.917,467.8 400.258,469.726 402.271,470.086C404.286,470.447 406.211,469.107 406.572,467.092C406.933,465.077 405.593,463.152 403.578,462.792C401.564,462.431 399.639,463.771 399.277,465.786Z" style="fill:rgb(255,254,245);fill-rule:nonzero;"/>
            </g>
            <g transform="matrix(4.16667,0,0,4.16667,-660.726,-484.505)">
                <path d="M372.14,468.245C371.09,474.106 374.991,479.708 380.852,480.758C386.714,481.809 392.317,477.907 393.367,472.046C394.416,466.184 390.515,460.582 384.654,459.532C378.793,458.482 373.19,462.382 372.14,468.245Z" style="fill:rgb(255,254,245);fill-rule:nonzero;"/>
            </g>
        </g>
        <g transform="matrix(4.16651,0.0367246,-0.039999,4.538,-642.297,-679.054)">
            <path d="M355.249,475.906C384.802,510.896 449.281,477.744 447.54,483.91C443.607,497.843 445.355,512.275 428.898,514.594C410.027,517.254 372.624,502.164 359.895,494.396C353.18,490.298 354.061,474.499 355.249,475.906Z" style="fill:rgb(181,112,50);fill-rule:nonzero;"/>
        </g>
        <g transform="matrix(4.16651,0.0367246,-0.0367246,4.16651,-643.855,-502.286)">
            <path d="M356.326,475.683C357.373,477.798 358.816,479.731 360.666,481.375C371.227,490.765 393.536,494.317 416.267,490.64C362.059,506.264 346.61,477.453 346.61,477.453L356.326,475.683Z" style="fill:rgb(5,6,6);fill-rule:nonzero;"/>
        </g>
        <g transform="matrix(4.16651,0.0367246,-0.0367246,4.16651,-643.855,-502.286)">
            <path d="M374.389,452.393C364.988,456.082 358.119,470.397 356.177,475.272C354.865,472.819 354.545,468.638 354.254,463.839C353.961,467.894 354.596,471.842 356.177,475.272C354.98,472.684 354.322,469.801 354.196,466.801C354.148,465.64 354.179,464.461 354.29,463.274C354.355,463.301 354.225,463.248 354.29,463.274C355.871,451.853 365.828,441.799 377.931,439.082C388.681,436.668 397.202,437.575 405.797,439.579C414.353,441.574 422.025,445.909 429.498,451.108C438.132,457.114 447.715,479.032 446.831,479.459C446.831,479.459 436.489,463.479 431.921,459.558C431.475,459.175 431.218,458.621 430.85,458.156C430.85,458.152 430.85,458.149 430.849,458.145C430.677,456.233 410.957,445.719 401.547,444.76C392.192,443.807 374.389,452.393 374.389,452.393Z" style="fill-opacity:0.46;fill-rule:nonzero;"/>
        </g>
        <g transform="matrix(4.16651,0.0367246,-0.0367246,4.16651,-643.855,-502.286)">
            <path d="M448.233,478.734C448.005,473.982 445.747,425.04 407.183,418.48C368.62,411.919 345.616,447.911 345.616,447.911C395.098,427.703 429.132,438.32 448.233,478.734Z" style="fill:rgb(102,51,19);fill-rule:nonzero;"/>
        </g>
        <g transform="matrix(4.16651,0.0367246,-0.0367246,4.16651,-643.855,-502.286)">
            <path d="M399.753,428.708C422.492,431.323 433.984,445.875 440.222,458.387C443.276,464.513 445.07,470.15 446.308,473.658C448.529,479.95 451.959,480.675 450.412,483.176C448.867,485.677 443.839,482.293 443.839,482.293C443.839,482.293 446.965,483.814 448.163,482.788C448.846,482.204 448.788,480.296 446.831,479.459C446.831,479.459 436.803,440.026 392.32,437.936C369.132,436.847 356.294,450.269 354.483,463.353C340.592,457.747 330.279,438.951 330.279,438.951C343.223,444.844 351.844,439.886 363.079,434.928C372.28,430.868 383.235,426.806 399.753,428.708Z" style="fill:rgb(5,6,6);fill-rule:nonzero;"/>
        </g>
    </g>
    <g id="left-eye" serif:id="left eye" transform="matrix(-1,0,0,1,3738.11,2.73692)">
        <g id="_-Curve-2" serif:id="(Curve)" transform="matrix(4.16651,-0.0367246,0.0367246,4.16651,-677.417,-466.846)">
            <path d="M446.831,479.459C446.831,479.459 436.386,437.038 391.903,434.949C356.681,433.295 345.747,468.109 360.666,481.375C375.588,494.642 413.96,496.275 443.839,482.293C443.839,482.293 446.965,483.814 448.163,482.788C448.846,482.206 448.788,480.296 446.831,479.459Z" style="fill:rgb(250,243,232);fill-rule:nonzero;"/>
        </g>
        <g id="_-Curve-3" serif:id="(Curve)" transform="matrix(4.16651,-0.0367246,0.0367246,4.16651,-677.417,-466.846)">
            <path d="M354.254,463.839C366.567,508.146 431.697,486.852 436.353,474.555C441.074,462.088 414.274,442.451 414.274,442.451C414.274,442.451 416.091,442.488 418.811,442.542C440.867,455.291 446.831,479.459 446.831,479.459C448.788,480.296 448.846,482.204 448.163,482.788C446.965,483.814 443.839,482.293 443.839,482.293C413.96,496.275 375.588,494.642 360.666,481.375C355.873,477.113 353.763,470.625 354.254,463.839Z" style="fill:rgb(241,220,220);fill-rule:nonzero;"/>
        </g>
        <g id="eye1" serif:id="eye" transform="matrix(-0.999961,0.00881389,0.00881389,0.999961,1976.92,20.5616)">
            <g transform="matrix(4.16667,0,0,4.16667,-660.726,-484.505)">
                <path d="M373.283,463.332C374.715,479.228 388.762,490.955 404.659,489.522C420.555,488.089 432.282,474.041 430.849,458.145C429.417,442.248 415.369,430.523 399.472,431.955C383.576,433.389 371.85,447.436 373.283,463.332Z" style="fill:rgb(71,20,14);fill-rule:nonzero;"/>
            </g>
            <g transform="matrix(4.16667,0,0,4.16667,-660.726,-484.505)">
                <path d="M383.495,463.469C384.379,473.284 393.054,480.525 402.87,479.641C412.685,478.756 419.925,470.081 419.041,460.266C418.156,450.451 409.483,443.21 399.668,444.095C389.851,444.979 382.61,453.653 383.495,463.469Z" style="fill:rgb(5,6,6);fill-rule:nonzero;"/>
            </g>
            <g transform="matrix(4.16667,0,0,4.16667,-660.726,-484.505)">
                <path d="M399.277,465.786C398.917,467.8 400.258,469.726 402.271,470.086C404.286,470.447 406.211,469.107 406.572,467.092C406.933,465.077 405.593,463.152 403.578,462.792C401.564,462.431 399.639,463.771 399.277,465.786Z" style="fill:rgb(255,254,245);fill-rule:nonzero;"/>
            </g>
            <g transform="matrix(4.16667,0,0,4.16667,-660.726,-484.505)">
                <path d="M372.14,468.245C371.09,474.106 374.991,479.708 380.852,480.758C386.714,481.809 392.317,477.907 393.367,472.046C394.416,466.184 390.515,460.582 384.654,459.532C378.793,458.482 373.19,462.382 372.14,468.245Z" style="fill:rgb(255,254,245);fill-rule:nonzero;"/>
            </g>
        </g>
        <g transform="matrix(4.16651,-0.0367246,0.039999,4.538,-678.975,-643.614)">
            <path d="M355.249,475.906C384.802,510.896 449.281,477.744 447.54,483.91C443.607,497.843 445.355,512.275 428.898,514.594C410.027,517.254 372.624,502.164 359.895,494.396C353.18,490.298 354.061,474.499 355.249,475.906Z" style="fill:rgb(181,112,50);fill-rule:nonzero;"/>
        </g>
        <g transform="matrix(4.16651,-0.0367246,0.0367246,4.16651,-677.417,-466.846)">
            <path d="M356.326,475.683C357.373,477.798 358.816,479.731 360.666,481.375C371.227,490.765 393.536,494.317 416.267,490.64C362.059,506.264 346.61,477.453 346.61,477.453L356.326,475.683Z" style="fill:rgb(5,6,6);fill-rule:nonzero;"/>
        </g>
        <g transform="matrix(4.16651,-0.0367246,0.0367246,4.16651,-677.417,-466.846)">
            <path d="M374.389,452.393C364.988,456.082 358.119,470.397 356.177,475.272C354.865,472.819 354.545,468.638 354.254,463.839C353.961,467.894 354.596,471.842 356.177,475.272C354.98,472.684 354.322,469.801 354.196,466.801C354.148,465.64 354.179,464.461 354.29,463.274C354.355,463.301 354.225,463.248 354.29,463.274C355.871,451.853 365.828,441.799 377.931,439.082C388.681,436.668 397.202,437.575 405.797,439.579C414.353,441.574 422.025,445.909 429.498,451.108C438.132,457.114 447.715,479.032 446.831,479.459C446.831,479.459 436.489,463.479 431.921,459.558C431.475,459.175 431.218,458.621 430.85,458.156C430.85,458.152 430.85,458.149 430.849,458.145C430.677,456.233 410.957,445.719 401.547,444.76C392.192,443.807 374.389,452.393 374.389,452.393Z" style="fill-opacity:0.46;fill-rule:nonzero;"/>
        </g>
        <g transform="matrix(4.16651,-0.0367246,0.0367246,4.16651,-677.417,-466.846)">
            <path d="M448.233,478.734C448.005,473.982 445.747,425.04 407.183,418.48C368.62,411.919 345.616,447.911 345.616,447.911C395.098,427.703 429.132,438.32 448.233,478.734Z" style="fill:rgb(102,51,19);fill-rule:nonzero;"/>
        </g>
        <g transform="matrix(4.16651,-0.0367246,0.0367246,4.16651,-677.417,-466.846)">
            <path d="M399.753,428.708C422.492,431.323 433.984,445.875 440.222,458.387C443.276,464.513 445.07,470.15 446.308,473.658C448.529,479.95 451.959,480.675 450.412,483.176C448.867,485.677 443.839,482.293 443.839,482.293C443.839,482.293 446.965,483.814 448.163,482.788C448.846,482.204 448.788,480.296 446.831,479.459C446.831,479.459 436.803,440.026 392.32,437.936C369.132,436.847 356.294,450.269 354.483,463.353C340.592,457.747 330.279,438.951 330.279,438.951C343.223,444.844 351.844,439.886 363.079,434.928C372.28,430.868 383.235,426.806 399.753,428.708Z" style="fill:rgb(5,6,6);fill-rule:nonzero;"/>
        </g>
    </g>
    <g id="ruha">
        <g transform="matrix(1.20694,0,0,13.3953,-575.585,-37121.5)">
            <path d="M3280.06,3136.84C2608.07,3146.83 2374.88,3149.74 1763.53,3133.17L1757.41,3141.47C1956.15,3151.04 2227.02,3156.12 2544.45,3155.99C2562.84,3155.98 2581.38,3155.96 2600.08,3155.91C2809.32,3155.44 3037.52,3152.76 3277.69,3147.67L3280.06,3136.84Z" style="fill:white;"/>
        </g>
        <g transform="matrix(1.20694,0,0,13.3953,-563.382,-38491.4)">
            <path d="M3215.15,3136.1C2695.5,3141.71 2505.42,3145.33 1763.53,3133.17L1757.41,3141.47C2134.76,3147.94 2629.18,3149.01 3222.98,3145.5L3215.15,3136.1Z" style="fill:white;"/>
        </g>
        <g transform="matrix(1.20694,0,0,13.3953,-573.366,-38291.4)">
            <path d="M3236.49,3137.05C2670,3139.39 2713.91,3143.29 1763.53,3133.17L1757.41,3141.47C2101.49,3148.42 2726.6,3150.29 3240.28,3144.96L3236.49,3137.05Z" style="fill:white;"/>
        </g>
        <g transform="matrix(1.20694,0,0,13.3953,-570.256,-38031.6)">
            <path d="M3250.11,3133.2C2362.05,3141.28 2163.17,3142.43 1763.53,3133.17L1757.41,3141.47C2195.39,3150.17 2745.38,3147.69 3256.9,3143.6L3250.11,3133.2Z" style="fill:white;"/>
        </g>
        <g transform="matrix(1.20694,0,0,13.3953,-569.777,-37829.6)">
            <path d="M3257.73,3135.54C2393.1,3141.81 2222.83,3143.5 1763.53,3133.17L1757.41,3141.47C2116.3,3150.17 2652.41,3149.88 3260.08,3145.91L3257.73,3135.54Z" style="fill:white;"/>
        </g>
        <g transform="matrix(1.20694,0,0,13.3953,-562.911,-37626.1)">
            <path d="M3257.97,3137.89C2466.14,3143.25 2296.71,3146.27 1763.53,3133.17L1757.41,3141.47C1962.14,3151.33 2236.88,3155.54 2561.55,3154.38C2774.67,3153.62 3009.31,3150.55 3259.79,3145.25L3257.97,3137.89Z" style="fill:white;"/>
        </g>
        <g transform="matrix(1.20694,0,0,13.3953,-561.365,-37365.2)">
            <path d="M3267.26,3134.2C2465.21,3149.73 2289.56,3153.38 1763.53,3133.17L1757.41,3141.47C1970.53,3151.73 2262.85,3156.55 2607.54,3155.39C2811.32,3154.71 3033.41,3151.94 3268.26,3146.97L3267.26,3134.2Z" style="fill:white;"/>
        </g>
        <g transform="matrix(1.20694,0,0,13.3953,-550.842,-38919.9)">
            <path d="M3167.51,3135.42C2776.06,3143 2557.59,3147.46 2375.33,3147.69C2184.15,3147.93 2032.83,3143.52 1763.53,3133.17L1757.41,3141.47C2096.52,3157.79 2564.91,3159.89 3197,3146.51L3167.51,3135.42Z" style="fill:white;"/>
        </g>
        <g transform="matrix(1.19593,0.168043,-1.86505,13.2732,5353.31,-39130.3)">
            <path d="M3096.07,3124.92C2451.29,3137.4 2369.92,3151.76 2078,3144.35C2073.09,3144.23 2068.12,3144.1 2063.09,3143.96C2028.02,3143.01 1989.87,3141.75 1947.4,3140.14C1935.92,3139.71 1926.84,3139.35 1918.6,3139.01C1898.28,3138.18 1883.15,3137.5 1850.09,3136.23L1757.41,3141.47C1807.33,3143.88 1860,3145.83 1915.36,3147.35C2236.02,3156.13 2646.75,3150.26 3134.96,3132.42L3096.07,3124.92Z" style="fill:white;"/>
        </g>
        <g transform="matrix(1.20694,0,0,13.3953,-549.163,-38692.2)">
            <path d="M3197.5,3136.26C2473.61,3144.7 2352.43,3147.68 1763.53,3133.17L1757.41,3141.47C2127.65,3151.32 2617.64,3148.85 3205.43,3144.68L3197.5,3136.26Z" style="fill:white;"/>
        </g>
    </g>
    <path d="M2126.12,2826.07C1766.45,2487.72 1138.02,3041.11 1042.18,3416.47C946.848,4030.87 917.23,4564.59 928.739,5047.81C1302.04,5292.22 1359.77,5353.76 1869.36,5306.9C1814.81,4913.14 1781.57,4822.16 1800.09,4100.11C1802.51,4005.84 1876.34,3591.22 1926.08,3438.72C1992.49,3235.14 2082,3031.89 2126.12,2826.07Z" style="fill:rgb(10,12,29);"/>
    <path d="M2126.12,2826.07C1766.45,2487.72 1138.02,3041.11 1042.18,3416.47C946.848,4030.87 953.135,4568.39 964.645,5051.61C1337.94,5296.02 1361.79,5270.33 1871.38,5223.47C1816.83,4829.71 1696.3,4198.85 1867.81,3409.01C1918.18,3177.07 2024.28,3105.6 2126.12,2826.07Z" style="fill:rgb(26,29,60);"/>
    <g transform="matrix(-1.02827,0,0,1,4826.07,-18.8328)">
        <path d="M2002.93,2776.53C1497.81,2637.59 1035.02,3115.81 939.185,3491.17C725.285,4106.2 727.502,4675.06 855.72,5043.62C1229.02,5288.04 1190.31,5400.4 1699.89,5353.53C1648.06,5140.09 1594.26,4551.38 1581.05,4270.24C1563.7,3900.88 1607.15,3410.63 2002.93,2776.53Z" style="fill:rgb(30,31,39);"/>
    </g>
    <g transform="matrix(-1.02827,0,0,1,4826.07,-18.8328)">
        <path d="M2002.93,2776.53C1497.81,2637.59 1035.02,3115.81 939.185,3491.17C725.285,4106.2 727.502,4675.06 855.72,5043.62C1229.02,5288.04 1151.82,5372.19 1661.4,5325.33C1609.57,5111.89 1616.78,4654.05 1560.42,4379.17C1482.01,3996.74 1549.84,3370 2002.93,2776.53Z" style="fill:rgb(19,22,51);"/>
    </g>
    <g transform="matrix(-1.02827,0,0,1,4826.07,-18.8328)">
        <path d="M1562.74,4379.56C1391.81,4510.48 1113.09,4514.08 775.454,4288.24C721.95,4806.78 726.894,4705.92 860.13,5065.94C1233.43,5310.35 1102.07,5058.92 1611.66,5012.06C1597.69,4986.47 1582.5,4724.59 1562.74,4379.56Z" style="fill:rgb(12,13,29);"/>
    </g>
    <g transform="matrix(-1.02827,0,0,1,2516.68,75.1314)">
        <path d="M1531.04,4248.43C1360.11,4379.35 1058.67,4691.49 721.034,4465.65C670.381,4858.71 649.352,4716.17 782.588,5076.19C1259.2,5317.23 1353.46,5053.26 1415.08,5021.01C1488.31,4901.32 1540.81,5061.27 1531.04,4248.43Z" style="fill:rgb(12,13,29);"/>
    </g>
    <path d="M2052.99,2650.06C2034.03,2738.38 1920.35,2482.71 1824.52,2858.07C1863.89,3394.65 2808.22,2661.62 3024.62,2784.15C2970.07,2390.39 1975,2878.18 2052.99,2650.06Z" style="fill:rgb(134,137,170);"/>
    <path d="M2052.99,2650.06C2034.03,2738.38 1920.35,2482.71 1824.52,2858.07C1863.89,3394.65 2800.2,2629.66 3016.6,2752.19C2962.05,2358.43 1975,2878.18 2052.99,2650.06Z" style="fill:rgb(45,50,99);"/>
    <g id="szaj--Group-" serif:id="szaj (Group)" transform="matrix(4.16395,-0.150603,0.150603,4.16395,2530.52,1443.48)">
        <g transform="matrix(0.24,0,0,0.24,-90.6822,126.753)">
            <path d="M41.344,11.346C41.344,11.346 119.188,110.275 228.656,102.978C338.125,95.678 398.469,3.062 398.469,3.062L41.344,11.346Z" style="fill:rgb(178,31,36);fill-rule:nonzero;"/>
        </g>
        <g transform="matrix(0.24,0,0,0.24,-90.6822,127.488)">
            <path d="M218.406,110.275C129.844,110.275 63.594,36.159 46,14.29C46.156,14.294 46.312,14.3 46.469,14.303C64.687,34.753 129.875,100.297 217.094,100.3C220.906,100.3 224.75,100.175 228.656,99.915C338.125,92.616 398.469,0 398.469,0C398.469,0 338.438,102.622 228.938,109.922C225.406,110.159 221.906,110.275 218.406,110.275Z" style="fill:rgb(145,87,40);fill-rule:nonzero;"/>
        </g>
        <g transform="matrix(0.24,0,0,0.24,-90.6822,125.094)">
            <path d="M217.094,110.275C129.875,110.272 64.687,44.728 46.469,24.278C47.875,24.319 49.313,24.356 50.75,24.391C79.344,51.275 139.938,97.809 216.969,97.809C220.969,97.809 225,97.684 229.063,97.425C317.313,91.809 375.094,35.722 397.063,10.131C397.531,10.081 398,10.028 398.469,9.975C398.469,9.975 338.125,102.591 228.656,109.89C224.75,110.15 220.906,110.275 217.094,110.275Z" style="fill:rgb(143,24,27);fill-rule:nonzero;"/>
        </g>
        <g transform="matrix(0.24,0,0,0.24,-90.6822,126.753)">
            <path d="M229.094,90.512C139.844,96.19 70.656,37.584 44.344,11.274L41.344,11.346C41.344,11.346 119.188,110.275 228.656,102.978C338.125,95.678 398.469,3.062 398.469,3.062L397.156,3.093C375.281,28.625 317.469,84.887 229.094,90.512Z" style="fill:rgb(128,20,22);fill-rule:nonzero;"/>
        </g>
        <g transform="matrix(0.00749625,0.239883,0.239883,-0.00749625,-74.844,65.5654)">
            <path d="M264.915,-74.304C264.915,-74.304 161.254,130.284 257.77,372.106C257.77,372.106 265.041,371.066 264.915,367.037C264.788,362.976 284.01,147.364 279.047,118.318C274.081,89.271 273.932,-71.365 264.915,-74.304Z" style="fill:rgb(203,129,82);fill-rule:nonzero;"/>
        </g>
        <g transform="matrix(0.00749625,0.239883,0.239883,-0.00749625,-73.7101,66.6644)">
            <path d="M260.191,-78.883C260.191,-78.883 165.771,118.757 253.046,367.527C253.046,367.527 260.317,366.487 260.191,362.458C260.064,358.397 279.286,142.785 274.323,113.739C269.357,84.692 269.208,-75.944 260.191,-78.883Z" style="fill:rgb(149,26,29);fill-rule:nonzero;"/>
        </g>
        <g transform="matrix(0.24,0,0,0.24,-90.6822,85.3953)">
            <path d="M130.781,148.713C130.781,148.713 174.437,136.95 225.781,136.95C235.719,136.95 245.937,137.391 256.187,138.441L130.781,148.713Z" style="fill:rgb(202,130,134);fill-rule:nonzero;"/>
        </g>
        <g transform="matrix(0.24,0,0,0.24,-90.6822,104.586)">
            <path d="M186.531,106.953C162.188,104.168 62.563,105.59 1.313,103.865C0.438,104.29 0,104.522 0,104.522C3.219,113.443 163.781,108.575 192.969,112.631C222.187,116.684 437.062,90.737 441.125,90.737C442.375,90.737 443.344,90.009 444.062,89.019C367.031,96.119 213.187,110 186.531,106.953Z" style="fill:rgb(128,20,22);fill-rule:nonzero;"/>
        </g>
        <g transform="matrix(-0.032048,-0.23785,-0.23785,0.032048,-14.2557,200.096)">
            <path d="M244.497,30.16C244.257,39.399 243.535,48.483 244.697,57.692L244.497,57.75C241.061,48.817 239.549,38.93 242.393,29.592C242.785,28.309 244.529,29.02 244.497,30.16Z" style="fill:white;fill-rule:nonzero;"/>
        </g>
        <g transform="matrix(0.24,0,0,0.24,-90.6822,124.557)">
            <path d="M317.562,49.3C311.281,53.575 305.312,57.872 298.5,61.253C291.094,64.912 283.062,66.825 275.281,69.375C273.344,70.006 273.563,73.191 275.781,73.078C292.688,72.203 306.187,60.956 317.719,49.522L317.562,49.3Z" style="fill:white;fill-rule:nonzero;"/>
        </g>
        <g transform="matrix(-0.085744,-0.22416,-0.22416,0.085744,6.51863,198.093)">
            <path d="M264.721,43.719C266.682,45.545 268.168,47.787 267.242,50.484C266.859,51.634 265.103,51.469 264.721,50.411C264.018,48.439 264.415,46.346 263.9,44.301C263.794,43.874 264.295,43.314 264.721,43.719Z" style="fill:white;fill-rule:nonzero;"/>
        </g>
    </g>
</svg>
