<?xml version="1.0" encoding="UTF-8" standalone="no"?>
<!DOCTYPE svg PUBLIC "-//W3C//DTD SVG 1.1//EN" "http://www.w3.org/Graphics/SVG/1.1/DTD/svg11.dtd">
<svg width="100%" height="100%" viewBox="0 0 796 673" version="1.1" xmlns="http://www.w3.org/2000/svg" xmlns:xlink="http://www.w3.org/1999/xlink" xml:space="preserve" xmlns:serif="http://www.serif.com/" style="fill-rule:evenodd;clip-rule:evenodd;stroke-linejoin:round;stroke-miterlimit:2;">
    <g id="hand" transform="matrix(-0.947868,-0.318664,-0.318664,0.947868,3293.04,-3707.07)">
        <g transform="matrix(2.7157,0,0,2.7157,252.079,1786.64)">
            <path d="M378.571,1177.84C439.062,1202.76 540.84,1186.47 573.691,1121.45C573.691,1121.45 590.578,1102.25 591.966,1096.95C601.728,1083.18 609.637,1067.44 601.29,1062.25C579.177,1048.49 544.281,1071.04 542.253,1087.22C539.637,1108.09 540.807,1141.78 539.302,1140.29C539.055,1141.7 551.247,1136.47 552.639,1140.15C552.632,1140.15 533.183,1052.43 535.872,1025.06C537.709,1006.24 525.865,995.647 511.644,997.657C507.045,1001.25 502.971,1006.21 499.647,1011.85C493.002,1023.27 489.077,1036.97 486.79,1050.87C484.491,1064.85 484.085,1079.27 484.542,1093.68C484.78,1100.89 484.854,1108.16 484.962,1115.51C484.962,1122.85 485.645,1107.82 484.962,1115.51L484.779,1103.32C462.947,1091.14 456.415,1055.57 462.545,1021.47C465.454,1005.28 451.895,992.574 439.567,992.442C439.404,992.585 434.404,995.903 430.76,1002.33C426.881,1009.17 424.314,1019.37 423.122,1027.38C421.508,1038.22 418.771,1106.53 418.771,1106.53C418.529,1111.21 413.13,1104.51 413.114,1104.48C374.783,1039.05 413.755,995.483 382.959,997.573C382.4,997.612 381.886,997.634 381.361,997.66L380.041,998.945C378.95,999.882 378.066,1001.1 377.08,1002.19C373.269,1006.74 370.329,1012.3 368.112,1018.26C365.94,1024.25 364.531,1030.68 363.739,1037.28C363.244,1040.57 363.152,1043.95 362.949,1047.32L362.93,1052.41L362.921,1054.97L363.066,1057.53L363.351,1062.68C363.554,1064.39 363.692,1066.12 363.852,1067.84C364.009,1071.32 364.505,1074.78 364.589,1078.35C364.741,1081.91 365.027,1085.48 364.936,1089.2C364.988,1092.89 364.976,1096.65 364.415,1100.66C361.711,1097.74 364.487,1099.9 362.475,1096.64C360.622,1093.32 358.837,1089.93 357.48,1086.39C356.15,1082.84 354.892,1079.25 354.113,1075.52C353.723,1073.66 353.296,1071.81 352.96,1069.93L352.18,1064.25L351.793,1061.4L351.565,1058.51C351.428,1056.59 351.236,1054.67 351.159,1052.73C351.13,1048.84 351.385,1047.19 351.706,1043.26C352.182,1035.98 354.87,1018.44 350.14,1013.84C345.41,1009.24 332.681,1010.17 323.326,1015.65C321.503,1016.72 319.653,1018.12 317.843,1019.91C305.841,1062.71 314.45,1151.42 378.571,1177.84Z" style="fill:rgb(181,112,50);fill-rule:nonzero;"/>
        </g>
        <g transform="matrix(2.7157,0,0,2.7157,252.079,1786.64)">
            <path d="M569.849,1123.33C536.998,1188.35 439.062,1202.76 378.571,1177.84C314.45,1151.42 305.841,1062.71 317.843,1019.91C307.698,1029.97 298.861,1052.79 303.444,1103.66C307.856,1152.62 334.748,1186.27 383.373,1203.66C423.383,1217.97 464.582,1215.95 469.141,1215.67L469.416,1215.65C526.229,1212.2 555.139,1167.77 569.849,1123.33Z" style="fill:rgb(141,80,36);fill-rule:nonzero;"/>
        </g>
        <g transform="matrix(2.7157,0,0,2.7157,252.079,1786.64)">
            <path d="M412.029,1102.7C406.551,1097.17 407.067,1071.52 406.159,1057.16C404.9,1052.56 409.842,1013.78 407.766,1003.31C407.057,999.818 397.695,988.734 390.301,991.922L389.374,992.277L388.476,992.757C387.88,993.082 387.267,993.36 386.675,993.702C385.547,994.525 384.319,995.136 383.263,996.116L381.596,997.432L381.361,997.66C381.886,997.634 382.4,997.612 382.959,997.573C413.755,995.483 373.698,1037.27 412.029,1102.7Z" style="fill:rgb(141,80,36);fill-rule:nonzero;"/>
        </g>
        <g transform="matrix(2.7157,0,0,2.7157,252.079,1786.64)">
            <path d="M461.788,1021.68C455.658,1055.78 462.571,1091.9 484.403,1104.08L483.025,1101.39C483.024,1101.41 484.393,1104.09 484.393,1104.07C484.341,1094.18 476.086,1108.86 470.928,1079.71C464.44,1043.05 483.552,979.492 439.567,992.442C451.895,992.574 464.697,1005.49 461.788,1021.68Z" style="fill:rgb(141,80,36);fill-rule:nonzero;"/>
        </g>
        <g transform="matrix(2.7157,0,0,2.7157,252.079,1786.64)">
            <path d="M535.872,1025.06C533.183,1052.43 527.596,1130.52 552.626,1140.15C552.623,1140.14 552.621,1140.14 552.619,1140.14C549.186,1138.17 546.649,1134.54 545.008,1130.84C543.326,1127.08 542.341,1123.12 541.739,1119.21C540.526,1111.35 540.643,1103.6 541.282,1096.05C541.338,1095.44 541.415,1094.84 541.477,1094.23C541.47,1094.2 541.463,1094.18 541.456,1094.15L541.486,1094.15C542.19,1087.26 543.26,1080.51 544.232,1073.8C545.328,1066.47 546.408,1059.21 547.342,1052.01C548.291,1044.81 549.071,1037.66 549.395,1030.66C549.688,1023.68 549.615,1016.78 548.49,1010.62C547.414,1004.39 545.026,999.386 541.698,996.6C540.81,995.929 539.934,995.246 538.852,994.766C538.362,994.468 537.752,994.301 537.209,994.047L535.144,993.416C533.753,992.897 532.364,992.776 530.982,992.46C530.291,992.336 529.611,992.353 528.926,992.278C528.241,992.211 527.557,992.141 526.89,992.216C524.172,992.119 521.58,992.792 519.011,993.6C516.455,994.493 514.029,995.957 511.671,997.634C511.662,997.641 511.653,997.65 511.644,997.657C525.865,995.647 537.709,1006.24 535.872,1025.06Z" style="fill:rgb(141,80,36);fill-rule:nonzero;"/>
        </g>
    </g>
</svg>
